<svg xmlns="http://www.w3.org/2000/svg" viewBox="0 0 397.53 395.76"><defs><style>.cls-1{fill:#dd574b;}.cls-2{fill:#d1443d;}.cls-3{fill:#fff6e4;}.cls-4{fill:#ede3d0;}.cls-5{fill:#575656;}.cls-6{fill:#4a8cae;}</style></defs><title>community</title><g id="Layer_2" data-name="Layer 2"><g id="Layer_2-2" data-name="Layer 2"><g id="Megaphone"><ellipse class="cls-1" cx="198.76" cy="197.88" rx="198.76" ry="197.88"/><path class="cls-2" d="M249.63,389.19C332.42,367.44,394,293.85,397.34,205.4l-116.56-116-35.86,53.79-92.74,21.92-35.78,49.93,58.28,58.1-16.59,24.77Z"/><path class="cls-3" d="M281.89,92c0-8.19-7,.9-7,.9-26.45,40.83-72.51,46.28-89.81,46.84v73.49c65.77,5.26,91.11,47.25,91.11,47.25s6,7.43,5.58-.3Z"/><path class="cls-4" d="M185.08,170.87v40.24c65.09,5.22,90.16,46.83,90.16,46.83s5.94,7.36,5.53-.29l.06-86.78Z"/><path class="cls-4" d="M292.66,152.95v46.47a25.93,25.93,0,0,0,0-46.47Z"/><rect class="cls-5" x="281.88" y="153.02" width="10.87" height="46.42"/><path class="cls-6" d="M186.25,216.88V138.35c-1.89,0-3-.07-3-.07v.16l-.36,0-51.48,4.78s-22.22,1-22.22,22.35V195s-.47,24.66,21.26,24.68c0,0,26.79,0,26.79,9V295a8.38,8.38,0,0,0,8.37,8.35h12.22a8.39,8.39,0,0,0,8.38-8.35V216.88Z"/></g></g></g></svg>