<svg xmlns="http://www.w3.org/2000/svg" xmlns:xlink="http://www.w3.org/1999/xlink" viewBox="0 0 391.88 392.01"><defs><style>.cls-1{fill:none;}.cls-2{clip-path:url(#clip-path);}.cls-3{fill:#4a8cae;}.cls-4{fill:#38718f;}.cls-4,.cls-5,.cls-6{fill-rule:evenodd;}.cls-5{fill:#fff6e4;}.cls-6{fill:#ede3d0;}</style><clipPath id="clip-path" transform="translate(-0.01 0.01)"><rect class="cls-1" x="0.03" y="0.01" width="391.97" height="391.97"/></clipPath></defs><title>health</title><g id="Layer_2" data-name="Layer 2"><g id="Layer_2-2" data-name="Layer 2"><g id="heart"><g class="cls-2"><g id="heart-2" data-name="heart"><g id="Ellipse_1_copy_48" data-name="Ellipse 1 copy 48"><ellipse class="cls-3" cx="195.94" cy="196.01" rx="195.94" ry="196.01"/></g><g id="Shape_497" data-name="Shape 497"><path class="cls-4" d="M270.92,140.77s-62.71,65.09-63.37,56L120.5,230.17l147.84,148a196.46,196.46,0,0,0,115.9-127.8Z" transform="translate(-0.01 0.01)"/></g><g id="icon"><g id="Shape_506" data-name="Shape 506"><path class="cls-5" d="M196.81,168.11c-24-56.06-92.17-43-92.63,22.07-.26,35.73,32.45,49.1,54.24,63.38,21.14,13.86,36.16,32.79,38.51,40.87,2-7.9,18.77-27.37,38.33-41.25,21.38-15.17,54.5-27.65,54.24-63.37C289.06,124.6,219.68,114.31,196.81,168.11Z" transform="translate(-0.01 0.01)"/></g><g id="Rectangle_44" data-name="Rectangle 44"><path class="cls-6" d="M196.81,168.11c-.48-1.12-1-2.21-1.5-3.27V290.63a21.22,21.22,0,0,1,1.62,3.81c2-7.9,18.77-27.37,38.33-41.25,21.38-15.17,54.5-27.65,54.24-63.37C289.06,124.6,219.68,114.31,196.81,168.11Z" transform="translate(-0.01 0.01)"/></g></g></g></g></g></g></g></svg>