<svg xmlns="http://www.w3.org/2000/svg" viewBox="0 0 382.92 382.61"><defs><style>.cls-1{fill:#4a8cae;}.cls-2{fill:#38718f;}.cls-3{fill:#fff6e4;}.cls-4{fill:#d1443d;}</style></defs><title>homelessness</title><g id="Layer_2" data-name="Layer 2"><g id="Layer_2-2" data-name="Layer 2"><g id="house"><ellipse class="cls-1" cx="191.46" cy="191.31" rx="191.46" ry="191.31"/><path class="cls-2" d="M372.66,253l-83.17-83.17-61.8-30.94-36.38-23.66-100,65.48,32.78,34.54,9.11,67.32,96.19,96.19A191.45,191.45,0,0,0,372.66,253Z"/><path class="cls-3" d="M191.31,141.07l-66.63,48.09v79.19a18.35,18.35,0,0,0,18.3,18.3h29.79V238.71h37.07v47.94h29.71a18.4,18.4,0,0,0,18.3-18.3V189.09Z"/><path class="cls-4" d="M289.41,167.64,264.9,150c-4.06-2.91-37.68-27.19-41.74-30.1L199,102.39c-4.06-3-7.51-5.44-7.51-5.51l-.15-.08h-.08l-.15.08c-.08.08-3.45,2.53-7.51,5.51L93.13,167.64a9.18,9.18,0,0,0-2.07,12.79l3.45,4.82a9,9,0,0,0,8.35,3.6l88.38-63.79h.08l88.38,63.79a9,9,0,0,0,8.35-3.6l3.45-4.82A9.25,9.25,0,0,0,289.41,167.64Z"/><path class="cls-4" d="M257.48,135.4V106.3a9.2,9.2,0,0,0-9.11-9.19h-8.65a9.15,9.15,0,0,0-9.11,9.19v9.65c0,5.05-3.37,6.74-7.43,3.83l41.74,30.1C260.85,147,257.48,140.46,257.48,135.4Z"/></g></g></g></svg>