<svg xmlns="http://www.w3.org/2000/svg" viewBox="0 0 396 311.37"><defs><style>.cls-1{fill:#e6e6e6;}.cls-1,.cls-2,.cls-3,.cls-5{stroke:#000;stroke-miterlimit:10;}.cls-2{fill:#369;stroke-width:2px;}.cls-3{fill:#333;}.cls-4,.cls-5{fill:#fff;}</style></defs><title>small-web</title><g id="Layer_2" data-name="Layer 2"><g id="Layer_2-2" data-name="Layer 2"><rect class="cls-1" x="0.5" y="0.5" width="395" height="310.37"/><rect class="cls-2" x="57.37" y="55.31" width="285.12" height="207.78"/><rect class="cls-3" x="35.12" y="127.06" width="329.84" height="69.88"/><path d="M110.47,269a.56.56,0,0,0-.16-.41,1.61,1.61,0,0,0-.85-.23v-.43h12a11.81,11.81,0,0,1,4.32.72,8.08,8.08,0,0,1,3,2,8.35,8.35,0,0,1,1.78,3,11.46,11.46,0,0,1,.59,3.74,10.18,10.18,0,0,1-.63,3.55,8.52,8.52,0,0,1-1.91,3,9.43,9.43,0,0,1-3.17,2.11,11.34,11.34,0,0,1-4.41.79H109.46v-.43a1.61,1.61,0,0,0,.85-.23.56.56,0,0,0,.16-.41Zm10,13.61a5.16,5.16,0,0,0,4.1-1.46,6.25,6.25,0,0,0,0-7.52,5.16,5.16,0,0,0-4.1-1.46h-4.57v10.44Z"/><path d="M142.11,271.45a3.32,3.32,0,0,0-.85.14.47.47,0,0,0-.31.5v13.68a.47.47,0,0,0,.31.5,3.25,3.25,0,0,0,.85.14v.43H135v-.43a3.27,3.27,0,0,0,.85-.14.47.47,0,0,0,.31-.5V272.1a.47.47,0,0,0-.31-.5,3.33,3.33,0,0,0-.85-.14V271h7.13Z"/><path d="M147.84,281.57a.85.85,0,0,1,0,.16,1.18,1.18,0,0,0,0,.23q0,.36.68.68a9.77,9.77,0,0,0,1.75.59,19.65,19.65,0,0,0,2.3.43,18,18,0,0,0,2.32.16l.88,0a4.87,4.87,0,0,0,1.1-.2,2.67,2.67,0,0,0,.92-.47,1,1,0,0,0,.38-.85q0-.72-.86-1a10.52,10.52,0,0,0-2.18-.47l-2.84-.34a13.65,13.65,0,0,1-2.84-.63,5.69,5.69,0,0,1-2.18-1.3,3.15,3.15,0,0,1-.86-2.36,4.36,4.36,0,0,1,.43-1.78,5,5,0,0,1,1.37-1.75,7.59,7.59,0,0,1,2.47-1.31,11.64,11.64,0,0,1,3.73-.52,20.26,20.26,0,0,1,2.47.14q1.17.14,2.12.32l1.62.32a5.17,5.17,0,0,0,1,.14.67.67,0,0,0,.47-.16l.32-.27.4.14L160.54,276l-.47-.22a1.07,1.07,0,0,1,0-.18,1.34,1.34,0,0,0,0-.22c0-.1-.14-.22-.43-.36a7.66,7.66,0,0,0-1.13-.43,14.11,14.11,0,0,0-1.58-.38,10,10,0,0,0-1.82-.16l-1,0a6.7,6.7,0,0,0-1.37.18,4.38,4.38,0,0,0-1.21.47,1,1,0,0,0-.52.92q0,.65.86.92a12.67,12.67,0,0,0,2.18.43l2.84.36a13.77,13.77,0,0,1,2.84.67,5.64,5.64,0,0,1,2.18,1.35,3.37,3.37,0,0,1,.86,2.47,4.49,4.49,0,0,1-.47,2,4.62,4.62,0,0,1-1.44,1.67,7,7,0,0,1-2.47,1.1,14.6,14.6,0,0,1-3.55.38,21.67,21.67,0,0,1-2.63-.16q-1.33-.16-2.45-.4T148,286a6.63,6.63,0,0,0-.85-.2.69.69,0,0,0-.45.16q-.2.16-.38.34l-.4-.11,1.48-4.82Z"/><path d="M182.11,271a.77.77,0,0,0,.43-.14q.22-.14.22-.65h.43v5.26h-.43q0-.5-.22-.65a.78.78,0,0,0-.43-.14H177v11.09a.48.48,0,0,0,.27.5,2.2,2.2,0,0,0,.56.14v.43h-6.48v-.43a2.21,2.21,0,0,0,.56-.14.48.48,0,0,0,.27-.5V274.69H167a.78.78,0,0,0-.43.14q-.22.14-.22.65h-.43v-5.26h.43q0,.5.22.65a.77.77,0,0,0,.43.14Z"/><path d="M187.9,272.1q0-.4-.25-.5a2,2,0,0,0-.54-.14V271h11.56a6.77,6.77,0,0,1,4.3,1.26,4.48,4.48,0,0,1,1.6,3.74,4.16,4.16,0,0,1-1.13,3.08,7.9,7.9,0,0,1-2.86,1.78l3.2,4.82a1.61,1.61,0,0,0,.52.5,1.35,1.35,0,0,0,.74.22v.43h-7.27v-.43a2,2,0,0,0,.56-.09.37.37,0,0,0,.31-.38,3.07,3.07,0,0,0-.38-.9q-.38-.72-.86-1.55l-.94-1.58q-.45-.76-.56-1h-3.46v4.82a.48.48,0,0,0,.27.5,2.35,2.35,0,0,0,.67.14v.43h-6.19v-.43a2,2,0,0,0,.47-.14c.17-.07.25-.24.25-.5Zm9.65,5.83a3,3,0,0,0,1.82-.49A1.69,1.69,0,0,0,200,276a1.88,1.88,0,0,0-.56-1.39,3.13,3.13,0,0,0-2.18-.56h-4.86v3.89Z"/><path d="M216.13,271.45a3.32,3.32,0,0,0-.85.14.47.47,0,0,0-.31.5v13.68a.47.47,0,0,0,.31.5,3.25,3.25,0,0,0,.85.14v.43H209v-.43a3.27,3.27,0,0,0,.85-.14.47.47,0,0,0,.31-.5V272.1a.47.47,0,0,0-.31-.5,3.33,3.33,0,0,0-.85-.14V271h7.13Z"/><path d="M235.75,277.11l-.5-.25a2.54,2.54,0,0,1,.09-.29.91.91,0,0,0,.05-.32q0-.22-.45-.5a5.25,5.25,0,0,0-1.15-.52,13.85,13.85,0,0,0-1.58-.41,8.93,8.93,0,0,0-1.78-.18,8.67,8.67,0,0,0-2.05.25,6.2,6.2,0,0,0-1.87.78,4.53,4.53,0,0,0-1.37,1.34,3.83,3.83,0,0,0,0,3.92,4.45,4.45,0,0,0,1.37,1.36,6.21,6.21,0,0,0,1.87.78,8.7,8.7,0,0,0,2.05.25,7.44,7.44,0,0,0,2-.27,9.25,9.25,0,0,0,1.69-.65,5.33,5.33,0,0,0,1.15-.76c.28-.25.41-.44.41-.56v-.32a1.11,1.11,0,0,0,0-.32l.4-.25,3.42,4.91-.43.25c-.22-.26-.41-.39-.58-.39a2.83,2.83,0,0,0-.77.32q-.63.32-1.67.73a14.7,14.7,0,0,1-2.47.7,16.08,16.08,0,0,1-3.15.29,18.77,18.77,0,0,1-3.87-.4,9.86,9.86,0,0,1-3.37-1.35,7.29,7.29,0,0,1-2.38-2.5,7.52,7.52,0,0,1,2.38-10,10.49,10.49,0,0,1,3.37-1.42,16.66,16.66,0,0,1,3.87-.45,13.18,13.18,0,0,1,2.3.2q1.12.2,2.05.41t1.62.41a4.09,4.09,0,0,0,1,.2.53.53,0,0,0,.32-.11,1,1,0,0,0,.22-.22l.43.14Z"/><path d="M258.1,271a.77.77,0,0,0,.43-.14q.22-.14.22-.65h.43v5.26h-.43q0-.5-.22-.65a.78.78,0,0,0-.43-.14H253v11.09a.48.48,0,0,0,.27.5,2.2,2.2,0,0,0,.56.14v.43H247.3v-.43a2.21,2.21,0,0,0,.56-.14.48.48,0,0,0,.27-.5V274.69H243a.78.78,0,0,0-.43.14q-.22.14-.22.65h-.43v-5.26h.43q0,.5.22.65a.77.77,0,0,0,.43.14Z"/><path d="M276.61,279.95a1.35,1.35,0,0,0-.11.54,1.09,1.09,0,0,0,.38.65,4.09,4.09,0,0,0,1.13.77,8.3,8.3,0,0,0,1.87.63,11.87,11.87,0,0,0,2.59.25,5.63,5.63,0,0,0,3-.68,2.13,2.13,0,0,0,.09-3.7,6.94,6.94,0,0,0-5.15-.43q-.59.31-.59.63a.3.3,0,0,0,.07.2,2.65,2.65,0,0,1,.18.27l-.22.4-6.26-3.78.25-.36a.29.29,0,0,0,.22.07h.22c.19,0,.29-.12.29-.36v-6c0-.26-.08-.43-.25-.5a2,2,0,0,0-.54-.14v-.43h15.91a.72.72,0,0,0,.43-.16q.22-.16.22-.74h.43v5.62h-.43a.92.92,0,0,0-.22-.72.68.68,0,0,0-.43-.18H279.2v3.13a14.85,14.85,0,0,1,2.45-.56,18.11,18.11,0,0,1,2.45-.16,12.31,12.31,0,0,1,2.92.34,7.31,7.31,0,0,1,2.48,1.1,5.63,5.63,0,0,1,1.73,1.94,6,6,0,0,1,.65,2.92,5.37,5.37,0,0,1-.72,2.77,6.25,6.25,0,0,1-2,2.07,9.5,9.5,0,0,1-3.1,1.26,17.65,17.65,0,0,1-4,.41,20.91,20.91,0,0,1-2.74-.16,16,16,0,0,1-2.2-.44,13.74,13.74,0,0,1-1.66-.56l-1.12-.47-.47-.2a.94.94,0,0,0-.32-.09,1.13,1.13,0,0,0-.54.25l-.43-.22,3.6-5.46Z"/><path d="M73.91,81.64a.86.86,0,0,0-.25-.63,2.47,2.47,0,0,0-1.29-.36V80h21a18,18,0,0,1,4.13.44,10,10,0,0,1,3.24,1.35,6.34,6.34,0,0,1,2.15,2.37,7.39,7.39,0,0,1,.77,3.49,5.45,5.45,0,0,1-1.48,4,7.32,7.32,0,0,1-3.79,2v.11a11.26,11.26,0,0,1,4.59,2.37,5.94,5.94,0,0,1,1.79,4.67,7.93,7.93,0,0,1-.63,3.14,6.72,6.72,0,0,1-2,2.58,10.25,10.25,0,0,1-3.47,1.76,17,17,0,0,1-5,.66H72.37v-.66a2.46,2.46,0,0,0,1.29-.36.86.86,0,0,0,.25-.63Zm15.73,9.24q1.76,0,2.92-.08a6,6,0,0,0,1.82-.36,1.81,1.81,0,0,0,.93-.77,3.3,3.3,0,0,0,0-2.64,1.82,1.82,0,0,0-.93-.77,6,6,0,0,0-1.82-.36q-1.15-.08-2.92-.08H82.16v5.06Zm1.87,12.21a8.51,8.51,0,0,0,4.18-.74,3.31,3.31,0,0,0,0-5.12,8.5,8.5,0,0,0-4.18-.74H82.16v6.6Z"/><path d="M135.73,104.08q1.1,0,1.43-1.37h.66v7.21h-.55q-.28-.77-.58-.88a3,3,0,0,0-1-.11H111.2v-.66a4.43,4.43,0,0,0,1.07-.22.72.72,0,0,0,.47-.77V86.37a.72.72,0,0,0-.47-.77,4.45,4.45,0,0,0-1.07-.22v-.66h25a1.18,1.18,0,0,0,.66-.22q.33-.22.33-1h.66v7.37h-.66a1.31,1.31,0,0,0-.33-1.07,1.1,1.1,0,0,0-.66-.25H120.11V94h10.34a1.09,1.09,0,0,0,.66-.25,1.22,1.22,0,0,0,.33-1h.66v7.15h-.66a1.22,1.22,0,0,0-.33-1,1.09,1.09,0,0,0-.66-.25H120.11v5.45Z"/><path d="M173.29,107.27a.73.73,0,0,0,.44.77,4.14,4.14,0,0,0,1.1.22v.66H164.66v-.66a5.49,5.49,0,0,0,1-.11q.58-.11.58-.6T165,105.7q-1.21-1.35-3.11-3.33l-4.26-4.43q-2.36-2.45-4.67-5.2l-.11.11v14.41a.73.73,0,0,0,.41.77,3.63,3.63,0,0,0,1,.22v.66h-9.41v-.66a3.54,3.54,0,0,0,1-.22.73.73,0,0,0,.41-.77V86.37a.73.73,0,0,0-.44-.77,4,4,0,0,0-1-.22v-.66h13.09v.66a3,3,0,0,0-.77.22q-.39.16-.38.77a6.14,6.14,0,0,0,.91,1.13q.91,1,2.34,2.56l3.19,3.41,3.52,3.74V86.37a.73.73,0,0,0-.44-.77,4.16,4.16,0,0,0-1.1-.22v-.66h9.68v.66a4.16,4.16,0,0,0-1.1.22.73.73,0,0,0-.44.77Z"/><path d="M181.65,101v.71q.11.83,1.38,1.38a9.79,9.79,0,0,0,3.74.55,5.28,5.28,0,0,0,2.92-.66,2.9,2.9,0,0,0,1-2.58v-14c0-.4-.13-.66-.38-.77a3.05,3.05,0,0,0-.83-.22v-.66h9.63v.66a3.44,3.44,0,0,0-.66.22q-.39.16-.38.77V101a9,9,0,0,1-.8,4,6.35,6.35,0,0,1-2.23,2.53,8.47,8.47,0,0,1-3.41,1.24,29.32,29.32,0,0,1-4.4.3q-1.1,0-2.31-.11t-2.23-.3q-1-.19-1.73-.36a5.94,5.94,0,0,0-.88-.17.7.7,0,0,0-.47.17c-.13.11-.27.24-.41.38l-.5-.22,2.31-7.7Z"/><path d="M227.52,108.25a2.37,2.37,0,0,0,.44-.05q.27-.05.27-.44a2.08,2.08,0,0,0-.19-.69c-.13-.31-.27-.65-.44-1s-.34-.73-.52-1.1-.33-.68-.44-.94H213.88a7.23,7.23,0,0,1-.36.94q-.25.55-.52,1.1c-.18.37-.35.71-.5,1a1.86,1.86,0,0,0-.22.69c0,.26.09.4.27.44a2.37,2.37,0,0,0,.44.05v.66h-8.25v-.66a1.71,1.71,0,0,0,.66-.14.75.75,0,0,0,.44-.41q1.65-3.85,3.36-7.62t3.05-6.82l2.23-5.06a12.78,12.78,0,0,0,.88-2.28q0-.49-.72-.55v-.66h11.5v.66q-.71.06-.71.55a8.46,8.46,0,0,0,.58,1.46q.58,1.29,1.51,3.25l2.06,4.32,2.25,4.73Q233,102,234,104.16t1.59,3.55a.75.75,0,0,0,.44.41,1.7,1.7,0,0,0,.66.14v.66h-9.13Zm-7.37-17.82-4.51,9.63h9.13Z"/><path d="M250.56,107.27a.73.73,0,0,0,.44.77,4.15,4.15,0,0,0,1.1.22v.66h-8.63v-.66a3.42,3.42,0,0,0,.85-.22.73.73,0,0,0,.41-.77V86.37a.73.73,0,0,0-.41-.77,3.45,3.45,0,0,0-.85-.22v-.66H255.4v.66l-.74.11a.32.32,0,0,0-.3.33,7.76,7.76,0,0,0,.63,1.6q.63,1.38,1.46,3L258,93.54q.71,1.46.88,1.9.66-1.32,1.51-2.89t1.59-3q.74-1.4,1.24-2.45a4.66,4.66,0,0,0,.49-1.32.32.32,0,0,0-.3-.33l-.74-.11v-.66h12v.66a3,3,0,0,0-.77.22c-.26.11-.39.37-.39.77v20.9c0,.4.13.66.39.77a3,3,0,0,0,.77.22v.66h-9.18v-.66a3.65,3.65,0,0,0,1-.22.73.73,0,0,0,.41-.77V91.64h-.11l-8.19,15.9-7.92-15.9h-.11Z"/><path d="M293.57,85.37a5,5,0,0,0-1.29.22.72.72,0,0,0-.47.77v20.9a.72.72,0,0,0,.47.77,5,5,0,0,0,1.29.22v.66H282.68v-.66A5,5,0,0,0,284,108a.72.72,0,0,0,.47-.77V86.37a.72.72,0,0,0-.47-.77,5,5,0,0,0-1.29-.22v-.66h10.89Z"/><path d="M329.1,107.27a.73.73,0,0,0,.44.77,4.14,4.14,0,0,0,1.1.22v.66H320.47v-.66a5.49,5.49,0,0,0,1-.11q.58-.11.58-.6t-1.21-1.84q-1.21-1.35-3.11-3.33l-4.26-4.43q-2.36-2.45-4.67-5.2l-.11.11v14.41a.73.73,0,0,0,.41.77,3.63,3.63,0,0,0,1,.22v.66h-9.41v-.66a3.54,3.54,0,0,0,1-.22.73.73,0,0,0,.41-.77V86.37a.73.73,0,0,0-.44-.77,4,4,0,0,0-1-.22v-.66H313.7v.66a3,3,0,0,0-.77.22q-.39.16-.38.77a6.14,6.14,0,0,0,.91,1.13q.91,1,2.34,2.56L319,93.46l3.52,3.74V86.37a.73.73,0,0,0-.44-.77,4.16,4.16,0,0,0-1.1-.22v-.66h9.68v.66a4.16,4.16,0,0,0-1.1.22.73.73,0,0,0-.44.77Z"/><path class="cls-4" d="M72.91,79.64a.86.86,0,0,0-.25-.63,2.47,2.47,0,0,0-1.29-.36V78h21a18,18,0,0,1,4.13.44,10,10,0,0,1,3.24,1.35,6.34,6.34,0,0,1,2.15,2.37,7.39,7.39,0,0,1,.77,3.49,5.45,5.45,0,0,1-1.48,4,7.32,7.32,0,0,1-3.79,2v.11a11.26,11.26,0,0,1,4.59,2.37,5.94,5.94,0,0,1,1.79,4.67,7.93,7.93,0,0,1-.63,3.14,6.72,6.72,0,0,1-2,2.58,10.25,10.25,0,0,1-3.47,1.76,17,17,0,0,1-5,.66H71.37v-.66a2.46,2.46,0,0,0,1.29-.36.86.86,0,0,0,.25-.63Zm15.73,9.24q1.76,0,2.92-.08a6,6,0,0,0,1.82-.36,1.81,1.81,0,0,0,.93-.77,3.3,3.3,0,0,0,0-2.64,1.82,1.82,0,0,0-.93-.77,6,6,0,0,0-1.82-.36q-1.15-.08-2.92-.08H81.16v5.06Zm1.87,12.21a8.51,8.51,0,0,0,4.18-.74,3.31,3.31,0,0,0,0-5.12,8.5,8.5,0,0,0-4.18-.74H81.16v6.6Z"/><path class="cls-4" d="M134.73,102.08q1.1,0,1.43-1.37h.66v7.21h-.55q-.28-.77-.58-.88a3,3,0,0,0-1-.11H110.2v-.66a4.43,4.43,0,0,0,1.07-.22.72.72,0,0,0,.47-.77V84.37a.72.72,0,0,0-.47-.77,4.45,4.45,0,0,0-1.07-.22v-.66h25a1.18,1.18,0,0,0,.66-.22q.33-.22.33-1h.66v7.37h-.66a1.31,1.31,0,0,0-.33-1.07,1.1,1.1,0,0,0-.66-.25H119.11V92h10.34a1.09,1.09,0,0,0,.66-.25,1.22,1.22,0,0,0,.33-1h.66v7.15h-.66a1.22,1.22,0,0,0-.33-1,1.09,1.09,0,0,0-.66-.25H119.11v5.45Z"/><path class="cls-4" d="M172.29,105.27a.73.73,0,0,0,.44.77,4.14,4.14,0,0,0,1.1.22v.66H163.66v-.66a5.49,5.49,0,0,0,1-.11q.58-.11.58-.6T164,103.7q-1.21-1.35-3.11-3.33l-4.26-4.43q-2.36-2.45-4.67-5.2l-.11.11v14.41a.73.73,0,0,0,.41.77,3.63,3.63,0,0,0,1,.22v.66h-9.41v-.66a3.54,3.54,0,0,0,1-.22.73.73,0,0,0,.41-.77V84.37a.73.73,0,0,0-.44-.77,4,4,0,0,0-1-.22v-.66h13.09v.66a3,3,0,0,0-.77.22q-.39.16-.38.77a6.14,6.14,0,0,0,.91,1.13q.91,1,2.34,2.56l3.19,3.41,3.52,3.74V84.37a.73.73,0,0,0-.44-.77,4.16,4.16,0,0,0-1.1-.22v-.66h9.68v.66a4.16,4.16,0,0,0-1.1.22.73.73,0,0,0-.44.77Z"/><path class="cls-4" d="M180.65,99v.71q.11.83,1.38,1.37a9.79,9.79,0,0,0,3.74.55,5.28,5.28,0,0,0,2.92-.66,2.9,2.9,0,0,0,1-2.58v-14c0-.4-.13-.66-.38-.77a3.05,3.05,0,0,0-.83-.22v-.66h9.63v.66a3.44,3.44,0,0,0-.66.22q-.39.16-.38.77V99a9,9,0,0,1-.8,4,6.35,6.35,0,0,1-2.23,2.53,8.47,8.47,0,0,1-3.41,1.24,29.32,29.32,0,0,1-4.4.3q-1.1,0-2.31-.11t-2.23-.3q-1-.19-1.73-.36a5.94,5.94,0,0,0-.88-.17.7.7,0,0,0-.47.17c-.13.11-.27.24-.41.38l-.5-.22,2.31-7.7Z"/><path class="cls-4" d="M226.52,106.25a2.37,2.37,0,0,0,.44-.05q.27-.05.27-.44a2.08,2.08,0,0,0-.19-.69c-.13-.31-.27-.65-.44-1s-.34-.73-.52-1.1-.33-.68-.44-.94H212.88a7.23,7.23,0,0,1-.36.94q-.25.55-.52,1.1c-.18.37-.35.71-.5,1a1.86,1.86,0,0,0-.22.69c0,.26.09.4.27.44a2.37,2.37,0,0,0,.44.05v.66h-8.25v-.66a1.71,1.71,0,0,0,.66-.14.75.75,0,0,0,.44-.41q1.65-3.85,3.36-7.62t3.05-6.82l2.23-5.06a12.78,12.78,0,0,0,.88-2.28q0-.49-.72-.55v-.66h11.5v.66q-.71.06-.71.55a8.46,8.46,0,0,0,.58,1.46q.58,1.29,1.51,3.25l2.06,4.32,2.25,4.73Q232,100,233,102.16t1.59,3.55a.75.75,0,0,0,.44.41,1.7,1.7,0,0,0,.66.14v.66h-9.13Zm-7.37-17.82-4.51,9.63h9.13Z"/><path class="cls-4" d="M249.56,105.27a.73.73,0,0,0,.44.77,4.15,4.15,0,0,0,1.1.22v.66h-8.63v-.66a3.42,3.42,0,0,0,.85-.22.73.73,0,0,0,.41-.77V84.37a.73.73,0,0,0-.41-.77,3.45,3.45,0,0,0-.85-.22v-.66H254.4v.66l-.74.11a.32.32,0,0,0-.3.33,7.76,7.76,0,0,0,.63,1.6q.63,1.38,1.46,3L257,91.54q.71,1.46.88,1.9.66-1.32,1.51-2.89t1.59-3q.74-1.4,1.24-2.45a4.66,4.66,0,0,0,.49-1.32.32.32,0,0,0-.3-.33l-.74-.11v-.66h12v.66a3,3,0,0,0-.77.22c-.26.11-.39.37-.39.77v20.9c0,.4.13.66.39.77a3,3,0,0,0,.77.22v.66h-9.18v-.66a3.65,3.65,0,0,0,1-.22.73.73,0,0,0,.41-.77V89.64h-.11l-8.19,15.9-7.92-15.9h-.11Z"/><path class="cls-4" d="M292.57,83.37a5,5,0,0,0-1.29.22.72.72,0,0,0-.47.77v20.9a.72.72,0,0,0,.47.77,5,5,0,0,0,1.29.22v.66H281.68v-.66A5,5,0,0,0,283,106a.72.72,0,0,0,.47-.77V84.37a.72.72,0,0,0-.47-.77,5,5,0,0,0-1.29-.22v-.66h10.89Z"/><path class="cls-4" d="M328.1,105.27a.73.73,0,0,0,.44.77,4.14,4.14,0,0,0,1.1.22v.66H319.47v-.66a5.49,5.49,0,0,0,1-.11q.58-.11.58-.6t-1.21-1.84q-1.21-1.35-3.11-3.33l-4.26-4.43q-2.36-2.45-4.67-5.2l-.11.11v14.41a.73.73,0,0,0,.41.77,3.63,3.63,0,0,0,1,.22v.66h-9.41v-.66a3.54,3.54,0,0,0,1-.22.73.73,0,0,0,.41-.77V84.37a.73.73,0,0,0-.44-.77,4,4,0,0,0-1-.22v-.66H312.7v.66a3,3,0,0,0-.77.22q-.39.16-.38.77a6.14,6.14,0,0,0,.91,1.13q.91,1,2.34,2.56L318,91.46l3.52,3.74V84.37a.73.73,0,0,0-.44-.77,4.16,4.16,0,0,0-1.1-.22v-.66h9.68v.66a4.16,4.16,0,0,0-1.1.22.73.73,0,0,0-.44.77Z"/><path d="M77.26,236.55a.76.76,0,0,0,.22.56,2.2,2.2,0,0,0,1.15.32V238H68.54v-.59a2.19,2.19,0,0,0,1.15-.32.76.76,0,0,0,.22-.56V213.71a.76.76,0,0,0-.22-.56,2.2,2.2,0,0,0-1.15-.32v-.59H86.47q5.44,0,7.89,2t2.45,6.15a7,7,0,0,1-2,5.29,11.46,11.46,0,0,1-5,2.74l5.78,8.13a1.69,1.69,0,0,0,1.42.88V238H86.82v-.59c.72,0,1.08-.33,1.08-.88a2.73,2.73,0,0,0-.39-.69q-.39-.59-1-1.42t-1.3-1.79l-1.37-1.84q-.66-.88-1.15-1.57t-.64-.93h-4.8Zm8.23-13.43a4.18,4.18,0,0,0,3-.81,2.6,2.6,0,0,0,0-3.77,4.18,4.18,0,0,0-3-.81H77.26v5.39Z"/><path d="M114.89,216.16a17.48,17.48,0,0,1,4.63.64,13.17,13.17,0,0,1,4.21,2,10.42,10.42,0,0,1,3.06,3.45,11.26,11.26,0,0,1,0,10,10.24,10.24,0,0,1-3.06,3.41,12.68,12.68,0,0,1-4.21,1.91,18.53,18.53,0,0,1-9.26,0,12.68,12.68,0,0,1-4.21-1.91,10.26,10.26,0,0,1-3.06-3.41,11.26,11.26,0,0,1,0-10,10.44,10.44,0,0,1,3.06-3.45,13.17,13.17,0,0,1,4.21-2A17.48,17.48,0,0,1,114.89,216.16Zm0,5.19a8,8,0,0,0-2.6.42,6.88,6.88,0,0,0-2.16,1.18,5.3,5.3,0,0,0-1.45,1.85,6.15,6.15,0,0,0,0,4.92,5.3,5.3,0,0,0,1.45,1.85,6.88,6.88,0,0,0,2.16,1.18,8.35,8.35,0,0,0,5.22,0,7,7,0,0,0,2.13-1.18,5.28,5.28,0,0,0,1.45-1.85,6.13,6.13,0,0,0,0-4.92,5.28,5.28,0,0,0-1.45-1.85,7,7,0,0,0-2.13-1.18A7.93,7.93,0,0,0,114.89,221.36Z"/><path d="M134.39,230.81a1.18,1.18,0,0,1,0,.22,1.58,1.58,0,0,0,0,.32q0,.49.93.93a13.25,13.25,0,0,0,2.38.81,26.86,26.86,0,0,0,3.13.59,24.54,24.54,0,0,0,3.16.22q.44,0,1.2,0a6.66,6.66,0,0,0,1.49-.27,3.61,3.61,0,0,0,1.25-.64,1.4,1.4,0,0,0,.52-1.15q0-1-1.18-1.4a14.31,14.31,0,0,0-3-.64l-3.87-.47a18.59,18.59,0,0,1-3.87-.86,7.74,7.74,0,0,1-3-1.76,4.28,4.28,0,0,1-1.18-3.21A5.9,5.9,0,0,1,133,221a6.8,6.8,0,0,1,1.86-2.38,10.32,10.32,0,0,1,3.36-1.79,15.82,15.82,0,0,1,5.07-.71,27.68,27.68,0,0,1,3.36.2q1.59.2,2.89.44l2.21.44a7,7,0,0,0,1.3.2.92.92,0,0,0,.64-.22c.16-.15.31-.27.44-.37l.54.2-2.94,6.17-.64-.29a1.42,1.42,0,0,1,0-.25,1.87,1.87,0,0,0,0-.29c0-.13-.2-.29-.59-.49a10.28,10.28,0,0,0-1.54-.59,19.11,19.11,0,0,0-2.16-.51,13.68,13.68,0,0,0-2.47-.22l-1.37,0a9.13,9.13,0,0,0-1.86.25,5.93,5.93,0,0,0-1.64.64,1.36,1.36,0,0,0-.71,1.25q0,.88,1.18,1.25a17.21,17.21,0,0,0,3,.59l3.87.49a18.71,18.71,0,0,1,3.87.91,7.71,7.71,0,0,1,3,1.84,4.6,4.6,0,0,1,1.18,3.36,6.11,6.11,0,0,1-.64,2.72,6.29,6.29,0,0,1-2,2.28,9.48,9.48,0,0,1-3.36,1.49,19.85,19.85,0,0,1-4.83.51,29.52,29.52,0,0,1-3.58-.22q-1.81-.22-3.33-.54t-2.52-.59a9.08,9.08,0,0,0-1.15-.27.94.94,0,0,0-.61.22,6.75,6.75,0,0,0-.51.47l-.54-.15,2-6.57Z"/><path d="M182,233.7q1,0,1.27-1.23h.59v6.42h-.49c-.16-.46-.33-.72-.51-.78a2.7,2.7,0,0,0-.86-.1H160.12v-.59a3.93,3.93,0,0,0,1-.2.64.64,0,0,0,.42-.69V217.93a.64.64,0,0,0-.42-.69,4,4,0,0,0-1-.2v-.59h22.25a1.06,1.06,0,0,0,.59-.2q.29-.2.29-.88h.59v6.57h-.59a1.17,1.17,0,0,0-.29-1,1,1,0,0,0-.59-.22H168.06v4h9.21a1,1,0,0,0,.59-.22,1.09,1.09,0,0,0,.29-.91h.59V230h-.59a1.09,1.09,0,0,0-.29-.91,1,1,0,0,0-.59-.22h-9.21v4.85Z"/><path d="M215.44,236.55a.64.64,0,0,0,.39.69,3.68,3.68,0,0,0,1,.2V238h-9.06v-.59a4.87,4.87,0,0,0,.91-.1c.34-.06.51-.25.51-.54s-.36-.84-1.08-1.64-1.64-1.79-2.77-3l-3.8-3.94q-2.11-2.18-4.17-4.63l-.1.1v12.84a.65.65,0,0,0,.37.69,3.24,3.24,0,0,0,.91.2V238h-8.38v-.59a3.13,3.13,0,0,0,.86-.2.65.65,0,0,0,.37-.69V217.93a.65.65,0,0,0-.39-.69,3.61,3.61,0,0,0-.93-.2v-.59h11.66V217a2.73,2.73,0,0,0-.69.2c-.23.1-.34.33-.34.69a5.44,5.44,0,0,0,.81,1q.81.91,2.08,2.28l2.84,3,3.13,3.33v-9.65a.65.65,0,0,0-.39-.69,3.72,3.72,0,0,0-1-.2v-.59h8.62V217a3.72,3.72,0,0,0-1,.2.64.64,0,0,0-.39.69Z"/><path d="M224.89,217.93a.64.64,0,0,0-.42-.69,4.49,4.49,0,0,0-1.15-.2v-.59h14.75a27.62,27.62,0,0,1,3.77.22,6.8,6.8,0,0,1,2.55.81,3.55,3.55,0,0,1,1.45,1.64,6.67,6.67,0,0,1,.46,2.67,4.52,4.52,0,0,1-1,2.82,6.27,6.27,0,0,1-2.28,1.89,6.38,6.38,0,0,1,3,1.84,5.12,5.12,0,0,1,1,3.41,5.61,5.61,0,0,1-2.06,4.58Q243,238,238.3,238h-15v-.59a4.45,4.45,0,0,0,1.15-.2.64.64,0,0,0,.42-.69Zm12.4,7.35a3.6,3.6,0,0,0,2.57-.69,2.31,2.31,0,0,0,.66-1.67q0-1.47-.81-1.91a5.22,5.22,0,0,0-2.43-.44h-5.83v4.7Zm-.49,8.62a6.42,6.42,0,0,0,2.89-.59,2.11,2.11,0,0,0,1.18-2.06,2.68,2.68,0,0,0-.37-1.52,2.12,2.12,0,0,0-1-.78,4.11,4.11,0,0,0-1.3-.29c-.47,0-1,0-1.45,0h-5.34v5.29Z"/><path d="M274.53,233.7q1,0,1.28-1.23h.59v6.42h-.49q-.25-.69-.52-.78a2.7,2.7,0,0,0-.86-.1H252.68v-.59a3.91,3.91,0,0,0,1-.2.64.64,0,0,0,.42-.69V217.93a.64.64,0,0,0-.42-.69,4,4,0,0,0-1-.2v-.59h22.25a1.05,1.05,0,0,0,.59-.2c.2-.13.29-.42.29-.88h.59v6.57h-.59a1.17,1.17,0,0,0-.29-1,1,1,0,0,0-.59-.22H260.62v4h9.21a1,1,0,0,0,.59-.22,1.09,1.09,0,0,0,.29-.91h.59V230h-.59a1.09,1.09,0,0,0-.29-.91,1,1,0,0,0-.59-.22h-9.21v4.85Z"/><path d="M284.18,217.93c0-.36-.11-.59-.34-.69a2.73,2.73,0,0,0-.74-.2v-.59h15.73a9.22,9.22,0,0,1,5.86,1.71,6.09,6.09,0,0,1,2.18,5.1,5.66,5.66,0,0,1-1.54,4.19,10.76,10.76,0,0,1-3.9,2.43l4.36,6.57a2.21,2.21,0,0,0,.71.69,1.85,1.85,0,0,0,1,.29V238h-9.9v-.59a2.7,2.7,0,0,0,.76-.12.51.51,0,0,0,.42-.51,4.18,4.18,0,0,0-.52-1.23q-.51-1-1.18-2.11l-1.27-2.16q-.61-1-.76-1.32h-4.7v6.57a.65.65,0,0,0,.37.69,3.22,3.22,0,0,0,.91.2V238h-8.43v-.59a2.78,2.78,0,0,0,.64-.2c.23-.1.34-.33.34-.69Zm13.13,7.94a4.12,4.12,0,0,0,2.47-.66,2.3,2.3,0,0,0,.91-2,2.56,2.56,0,0,0-.76-1.89,4.26,4.26,0,0,0-3-.76h-6.61v5.29Z"/><path d="M336.32,233a1.62,1.62,0,0,0,.24.88.77.77,0,0,0,.69.39h.44v.59q-1.17.59-2.7,1.2a30.61,30.61,0,0,1-3.28,1.1,29.16,29.16,0,0,1-3.63.76,26,26,0,0,1-3.72.27,22,22,0,0,1-5.24-.59,10.44,10.44,0,0,1-4.09-1.94,9.22,9.22,0,0,1-2.65-3.43,11.85,11.85,0,0,1-1-5,10.69,10.69,0,0,1,1.08-5,9.85,9.85,0,0,1,2.89-3.43,12.7,12.7,0,0,1,4.14-2,17.56,17.56,0,0,1,4.83-.66,24.19,24.19,0,0,1,3.41.22,27.14,27.14,0,0,1,2.72.51q1.18.29,1.94.51a4.69,4.69,0,0,0,1,.22.67.67,0,0,0,.51-.15c.08-.1.19-.21.32-.34l.59.1-2.55,6.47-.59-.29v-.34q0-.44-.66-.83a8.23,8.23,0,0,0-1.64-.71,13.41,13.41,0,0,0-2.08-.49,13,13,0,0,0-2-.17,11.9,11.9,0,0,0-2.89.34,6.3,6.3,0,0,0-2.38,1.13,5.59,5.59,0,0,0-1.59,2,6.57,6.57,0,0,0-.59,2.92,7,7,0,0,0,.59,3,5.58,5.58,0,0,0,1.62,2.06,6.91,6.91,0,0,0,2.4,1.2,10.82,10.82,0,0,0,3,.39,16.59,16.59,0,0,0,2.4-.17,13.62,13.62,0,0,0,2.35-.56V230h-4.12a.68.68,0,0,0-.73.44,2.43,2.43,0,0,0-.15.74h-.59v-6.08h.59a2.43,2.43,0,0,0,.15.73.68.68,0,0,0,.73.44h10.19Z"/><path class="cls-4" d="M75.26,235.55a.76.76,0,0,0,.22.56,2.2,2.2,0,0,0,1.15.32V237H66.54v-.59a2.19,2.19,0,0,0,1.15-.32.76.76,0,0,0,.22-.56V212.71a.76.76,0,0,0-.22-.56,2.2,2.2,0,0,0-1.15-.32v-.59H84.47q5.44,0,7.89,2t2.45,6.15a7,7,0,0,1-2,5.29,11.46,11.46,0,0,1-5,2.74l5.78,8.13a1.69,1.69,0,0,0,1.42.88V237H84.82v-.59c.72,0,1.08-.33,1.08-.88a2.73,2.73,0,0,0-.39-.69q-.39-.59-1-1.42t-1.3-1.79l-1.37-1.84q-.66-.88-1.15-1.57t-.64-.93h-4.8Zm8.23-13.43a4.18,4.18,0,0,0,3-.81,2.6,2.6,0,0,0,0-3.77,4.18,4.18,0,0,0-3-.81H75.26v5.39Z"/><path class="cls-4" d="M112.89,215.16a17.48,17.48,0,0,1,4.63.64,13.17,13.17,0,0,1,4.21,2,10.42,10.42,0,0,1,3.06,3.45,11.26,11.26,0,0,1,0,10,10.24,10.24,0,0,1-3.06,3.41,12.68,12.68,0,0,1-4.21,1.91,18.53,18.53,0,0,1-9.26,0,12.68,12.68,0,0,1-4.21-1.91,10.26,10.26,0,0,1-3.06-3.41,11.26,11.26,0,0,1,0-10,10.44,10.44,0,0,1,3.06-3.45,13.17,13.17,0,0,1,4.21-2A17.48,17.48,0,0,1,112.89,215.16Zm0,5.19a8,8,0,0,0-2.6.42,6.88,6.88,0,0,0-2.16,1.18,5.3,5.3,0,0,0-1.45,1.85,6.15,6.15,0,0,0,0,4.92,5.3,5.3,0,0,0,1.45,1.85,6.88,6.88,0,0,0,2.16,1.18,8.35,8.35,0,0,0,5.22,0,7,7,0,0,0,2.13-1.18,5.28,5.28,0,0,0,1.45-1.85,6.13,6.13,0,0,0,0-4.92,5.28,5.28,0,0,0-1.45-1.85,7,7,0,0,0-2.13-1.18A7.93,7.93,0,0,0,112.89,220.36Z"/><path class="cls-4" d="M132.39,229.81a1.18,1.18,0,0,1,0,.22,1.58,1.58,0,0,0,0,.32q0,.49.93.93a13.25,13.25,0,0,0,2.38.81,26.86,26.86,0,0,0,3.13.59,24.54,24.54,0,0,0,3.16.22q.44,0,1.2,0a6.66,6.66,0,0,0,1.49-.27,3.61,3.61,0,0,0,1.25-.64,1.4,1.4,0,0,0,.52-1.15q0-1-1.18-1.4a14.31,14.31,0,0,0-3-.64l-3.87-.47a18.59,18.59,0,0,1-3.87-.86,7.74,7.74,0,0,1-3-1.76,4.28,4.28,0,0,1-1.18-3.21A5.9,5.9,0,0,1,131,220a6.8,6.8,0,0,1,1.86-2.38,10.32,10.32,0,0,1,3.36-1.79,15.82,15.82,0,0,1,5.07-.71,27.68,27.68,0,0,1,3.36.2q1.59.2,2.89.44l2.21.44a7,7,0,0,0,1.3.2.92.92,0,0,0,.64-.22c.16-.15.31-.27.44-.37l.54.2-2.94,6.17-.64-.29a1.42,1.42,0,0,1,0-.25,1.87,1.87,0,0,0,0-.29c0-.13-.2-.29-.59-.49a10.28,10.28,0,0,0-1.54-.59,19.11,19.11,0,0,0-2.16-.51,13.68,13.68,0,0,0-2.47-.22l-1.37,0a9.13,9.13,0,0,0-1.86.25,5.93,5.93,0,0,0-1.64.64,1.36,1.36,0,0,0-.71,1.25q0,.88,1.18,1.25a17.21,17.21,0,0,0,3,.59l3.87.49a18.71,18.71,0,0,1,3.87.91,7.71,7.71,0,0,1,3,1.84,4.6,4.6,0,0,1,1.18,3.36,6.11,6.11,0,0,1-.64,2.72,6.29,6.29,0,0,1-2,2.28,9.48,9.48,0,0,1-3.36,1.49,19.85,19.85,0,0,1-4.83.51,29.52,29.52,0,0,1-3.58-.22q-1.81-.22-3.33-.54t-2.52-.59a9.08,9.08,0,0,0-1.15-.27.94.94,0,0,0-.61.22,6.75,6.75,0,0,0-.51.47l-.54-.15,2-6.57Z"/><path class="cls-4" d="M180,232.7q1,0,1.27-1.23h.59v6.42h-.49c-.16-.46-.33-.72-.51-.78a2.7,2.7,0,0,0-.86-.1H158.12v-.59a3.93,3.93,0,0,0,1-.2.64.64,0,0,0,.42-.69V216.93a.64.64,0,0,0-.42-.69,4,4,0,0,0-1-.2v-.59h22.25a1.06,1.06,0,0,0,.59-.2q.29-.2.29-.88h.59v6.57h-.59a1.17,1.17,0,0,0-.29-1,1,1,0,0,0-.59-.22H166.06v4h9.21a1,1,0,0,0,.59-.22,1.09,1.09,0,0,0,.29-.91h.59V229h-.59a1.09,1.09,0,0,0-.29-.91,1,1,0,0,0-.59-.22h-9.21v4.85Z"/><path class="cls-4" d="M213.44,235.55a.64.64,0,0,0,.39.69,3.68,3.68,0,0,0,1,.2V237h-9.06v-.59a4.87,4.87,0,0,0,.91-.1c.34-.06.51-.25.51-.54s-.36-.84-1.08-1.64-1.64-1.79-2.77-3l-3.8-3.94q-2.11-2.18-4.17-4.63l-.1.1v12.84a.65.65,0,0,0,.37.69,3.24,3.24,0,0,0,.91.2V237h-8.38v-.59a3.13,3.13,0,0,0,.86-.2.65.65,0,0,0,.37-.69V216.93a.65.65,0,0,0-.39-.69,3.61,3.61,0,0,0-.93-.2v-.59h11.66V216a2.73,2.73,0,0,0-.69.2c-.23.1-.34.33-.34.69a5.44,5.44,0,0,0,.81,1q.81.91,2.08,2.28l2.84,3,3.13,3.33v-9.65a.65.65,0,0,0-.39-.69,3.72,3.72,0,0,0-1-.2v-.59h8.62V216a3.72,3.72,0,0,0-1,.2.64.64,0,0,0-.39.69Z"/><path class="cls-4" d="M222.89,216.93a.64.64,0,0,0-.42-.69,4.49,4.49,0,0,0-1.15-.2v-.59h14.75a27.62,27.62,0,0,1,3.77.22,6.8,6.8,0,0,1,2.55.81,3.55,3.55,0,0,1,1.45,1.64,6.67,6.67,0,0,1,.46,2.67,4.52,4.52,0,0,1-1,2.82,6.27,6.27,0,0,1-2.28,1.89,6.38,6.38,0,0,1,3,1.84,5.12,5.12,0,0,1,1,3.41,5.61,5.61,0,0,1-2.06,4.58Q241,237,236.3,237h-15v-.59a4.45,4.45,0,0,0,1.15-.2.64.64,0,0,0,.42-.69Zm12.4,7.35a3.6,3.6,0,0,0,2.57-.69,2.31,2.31,0,0,0,.66-1.67q0-1.47-.81-1.91a5.22,5.22,0,0,0-2.43-.44h-5.83v4.7Zm-.49,8.62a6.42,6.42,0,0,0,2.89-.59,2.11,2.11,0,0,0,1.18-2.06,2.68,2.68,0,0,0-.37-1.52,2.12,2.12,0,0,0-1-.78,4.11,4.11,0,0,0-1.3-.29c-.47,0-1,0-1.45,0h-5.34v5.29Z"/><path class="cls-4" d="M272.53,232.7q1,0,1.28-1.23h.59v6.42h-.49q-.25-.69-.52-.78a2.7,2.7,0,0,0-.86-.1H250.68v-.59a3.91,3.91,0,0,0,1-.2.64.64,0,0,0,.42-.69V216.93a.64.64,0,0,0-.42-.69,4,4,0,0,0-1-.2v-.59h22.25a1.05,1.05,0,0,0,.59-.2c.2-.13.29-.42.29-.88h.59v6.57h-.59a1.17,1.17,0,0,0-.29-1,1,1,0,0,0-.59-.22H258.62v4h9.21a1,1,0,0,0,.59-.22,1.09,1.09,0,0,0,.29-.91h.59V229h-.59a1.09,1.09,0,0,0-.29-.91,1,1,0,0,0-.59-.22h-9.21v4.85Z"/><path class="cls-4" d="M282.18,216.93c0-.36-.11-.59-.34-.69a2.73,2.73,0,0,0-.74-.2v-.59h15.73a9.22,9.22,0,0,1,5.86,1.71,6.09,6.09,0,0,1,2.18,5.1,5.66,5.66,0,0,1-1.54,4.19,10.76,10.76,0,0,1-3.9,2.43l4.36,6.57a2.21,2.21,0,0,0,.71.69,1.85,1.85,0,0,0,1,.29V237h-9.9v-.59a2.7,2.7,0,0,0,.76-.12.51.51,0,0,0,.42-.51,4.18,4.18,0,0,0-.52-1.23q-.51-1-1.18-2.11l-1.27-2.16q-.61-1-.76-1.32h-4.7v6.57a.65.65,0,0,0,.37.69,3.22,3.22,0,0,0,.91.2V237h-8.43v-.59a2.78,2.78,0,0,0,.64-.2c.23-.1.34-.33.34-.69Zm13.13,7.94a4.12,4.12,0,0,0,2.47-.66,2.3,2.3,0,0,0,.91-2,2.56,2.56,0,0,0-.76-1.89,4.26,4.26,0,0,0-3-.76h-6.61v5.29Z"/><path class="cls-4" d="M334.32,232a1.62,1.62,0,0,0,.24.88.77.77,0,0,0,.69.39h.44v.59q-1.17.59-2.7,1.2a30.61,30.61,0,0,1-3.28,1.1,29.16,29.16,0,0,1-3.63.76,26,26,0,0,1-3.72.27,22,22,0,0,1-5.24-.59,10.44,10.44,0,0,1-4.09-1.94,9.22,9.22,0,0,1-2.65-3.43,11.85,11.85,0,0,1-1-5,10.69,10.69,0,0,1,1.08-5,9.85,9.85,0,0,1,2.89-3.43,12.7,12.7,0,0,1,4.14-2,17.56,17.56,0,0,1,4.83-.66,24.19,24.19,0,0,1,3.41.22,27.14,27.14,0,0,1,2.72.51q1.18.29,1.94.51a4.69,4.69,0,0,0,1,.22.67.67,0,0,0,.51-.15c.08-.1.19-.21.32-.34l.59.1-2.55,6.47-.59-.29v-.34q0-.44-.66-.83a8.23,8.23,0,0,0-1.64-.71,13.41,13.41,0,0,0-2.08-.49,13,13,0,0,0-2-.17,11.9,11.9,0,0,0-2.89.34,6.3,6.3,0,0,0-2.38,1.13,5.59,5.59,0,0,0-1.59,2,6.57,6.57,0,0,0-.59,2.92,7,7,0,0,0,.59,3,5.58,5.58,0,0,0,1.62,2.06,6.91,6.91,0,0,0,2.4,1.2,10.82,10.82,0,0,0,3,.39,16.59,16.59,0,0,0,2.4-.17,13.62,13.62,0,0,0,2.35-.56V229h-4.12a.68.68,0,0,0-.73.44,2.43,2.43,0,0,0-.15.74h-.59v-6.08h.59a2.43,2.43,0,0,0,.15.73.68.68,0,0,0,.73.44h10.19Z"/><path d="M121.88,144.13a1,1,0,0,0-.29-.74,2.88,2.88,0,0,0-1.5-.42v-.77h15.42V143a3.43,3.43,0,0,0-1.44.29.64.64,0,0,0-.35.54,5.46,5.46,0,0,0,.83,1.15q.83,1,2.18,2.56t3,3.42q1.69,1.89,3.42,3.78t3.33,3.58l2.75,2.91V144.13q0-1.09-1.34-1.15v-.77h11.71V143a2.87,2.87,0,0,0-1.5.42,1,1,0,0,0-.29.74V174a1,1,0,0,0,.29.74,2.86,2.86,0,0,0,1.5.42v.77H147.48v-.77a2.41,2.41,0,0,0,1.18-.19.59.59,0,0,0,.29-.51.93.93,0,0,0-.19-.48,10.82,10.82,0,0,0-.83-1q-.64-.7-1.89-2t-3.3-3.52q-2-2.21-5.06-5.5t-7.23-8V174a1,1,0,0,0,.29.74,2.86,2.86,0,0,0,1.5.42v.77H120.09v-.77a2.87,2.87,0,0,0,1.5-.42,1,1,0,0,0,.29-.74Z"/><path d="M184.21,147.33a22.85,22.85,0,0,1,6,.83,17.22,17.22,0,0,1,5.5,2.59,13.64,13.64,0,0,1,4,4.51,14.71,14.71,0,0,1,0,13.09,13.4,13.4,0,0,1-4,4.45,16.57,16.57,0,0,1-5.5,2.5,24.2,24.2,0,0,1-12.1,0,16.56,16.56,0,0,1-5.5-2.5,13.39,13.39,0,0,1-4-4.45,14.71,14.71,0,0,1,0-13.09,13.63,13.63,0,0,1,4-4.51,17.2,17.2,0,0,1,5.5-2.59A22.84,22.84,0,0,1,184.21,147.33Zm0,6.78a10.42,10.42,0,0,0-3.39.55A9,9,0,0,0,178,156.2a6.93,6.93,0,0,0-1.89,2.41,8,8,0,0,0,0,6.43,6.92,6.92,0,0,0,1.89,2.41,9,9,0,0,0,2.82,1.54,10.91,10.91,0,0,0,6.82,0,9.06,9.06,0,0,0,2.78-1.54,6.92,6.92,0,0,0,1.89-2.41,8,8,0,0,0,0-6.43,6.93,6.93,0,0,0-1.89-2.41,9,9,0,0,0-2.78-1.54A10.35,10.35,0,0,0,184.21,154.12Z"/><path d="M232.85,175.11a2.75,2.75,0,0,0,.51-.06q.32-.06.32-.51a2.42,2.42,0,0,0-.22-.8q-.23-.54-.51-1.18t-.61-1.28q-.32-.64-.51-1.09H217a8.31,8.31,0,0,1-.42,1.09q-.29.64-.61,1.28t-.58,1.18a2.18,2.18,0,0,0-.26.8c0,.3.11.47.32.51a2.72,2.72,0,0,0,.51.06v.77h-9.6v-.77a2,2,0,0,0,.77-.16.87.87,0,0,0,.51-.48q1.92-4.48,3.9-8.86t3.55-7.94l2.59-5.89a14.88,14.88,0,0,0,1-2.66c0-.38-.28-.6-.83-.64v-.77h13.38v.77q-.83.06-.83.64a9.83,9.83,0,0,0,.67,1.7q.67,1.5,1.76,3.78l2.4,5,2.62,5.5q1.31,2.75,2.46,5.22t1.86,4.13a.87.87,0,0,0,.51.48,2,2,0,0,0,.77.16v.77H232.85Zm-8.58-20.74L219,165.57h10.62Z"/><path d="M260.76,174a.84.84,0,0,0,.51.9,4.8,4.8,0,0,0,1.28.26v.77H250.39v-.77a4.81,4.81,0,0,0,1.28-.26.84.84,0,0,0,.51-.9V149.63a.85.85,0,0,0-.51-.9,4.85,4.85,0,0,0-1.28-.26v-.77h12.16v.77a4.84,4.84,0,0,0-1.28.26.84.84,0,0,0-.51.9v8.06H274.9v-8.06a.85.85,0,0,0-.51-.9,4.87,4.87,0,0,0-1.28-.26v-.77h12.16v.77a4.85,4.85,0,0,0-1.28.26.84.84,0,0,0-.51.9V174a.84.84,0,0,0,.51.9,4.81,4.81,0,0,0,1.28.26v.77H273.11v-.77a4.83,4.83,0,0,0,1.28-.26.84.84,0,0,0,.51-.9v-9.73H260.76Z"/><path class="cls-4" d="M119.88,143.13a1,1,0,0,0-.29-.74,2.88,2.88,0,0,0-1.5-.42v-.77h15.42V142a3.43,3.43,0,0,0-1.44.29.64.64,0,0,0-.35.54,5.46,5.46,0,0,0,.83,1.15q.83,1,2.18,2.56t3,3.42q1.69,1.89,3.42,3.78t3.33,3.58l2.75,2.91V143.13q0-1.09-1.34-1.15v-.77h11.71V142a2.87,2.87,0,0,0-1.5.42,1,1,0,0,0-.29.74V173a1,1,0,0,0,.29.74,2.86,2.86,0,0,0,1.5.42v.77H145.48v-.77a2.41,2.41,0,0,0,1.18-.19.59.59,0,0,0,.29-.51.93.93,0,0,0-.19-.48,10.82,10.82,0,0,0-.83-1q-.64-.7-1.89-2t-3.3-3.52q-2-2.21-5.06-5.5t-7.23-8V173a1,1,0,0,0,.29.74,2.86,2.86,0,0,0,1.5.42v.77H118.09v-.77a2.87,2.87,0,0,0,1.5-.42,1,1,0,0,0,.29-.74Z"/><path class="cls-4" d="M182.21,146.33a22.85,22.85,0,0,1,6,.83,17.22,17.22,0,0,1,5.5,2.59,13.64,13.64,0,0,1,4,4.51,14.71,14.71,0,0,1,0,13.09,13.4,13.4,0,0,1-4,4.45,16.57,16.57,0,0,1-5.5,2.5,24.2,24.2,0,0,1-12.1,0,16.56,16.56,0,0,1-5.5-2.5,13.39,13.39,0,0,1-4-4.45,14.71,14.71,0,0,1,0-13.09,13.63,13.63,0,0,1,4-4.51,17.2,17.2,0,0,1,5.5-2.59A22.84,22.84,0,0,1,182.21,146.33Zm0,6.78a10.42,10.42,0,0,0-3.39.55A9,9,0,0,0,176,155.2a6.93,6.93,0,0,0-1.89,2.41,8,8,0,0,0,0,6.43,6.92,6.92,0,0,0,1.89,2.41,9,9,0,0,0,2.82,1.54,10.91,10.91,0,0,0,6.82,0,9.06,9.06,0,0,0,2.78-1.54,6.92,6.92,0,0,0,1.89-2.41,8,8,0,0,0,0-6.43,6.93,6.93,0,0,0-1.89-2.41,9,9,0,0,0-2.78-1.54A10.35,10.35,0,0,0,182.21,153.12Z"/><path class="cls-4" d="M230.85,174.11a2.75,2.75,0,0,0,.51-.06q.32-.06.32-.51a2.42,2.42,0,0,0-.22-.8q-.23-.54-.51-1.18t-.61-1.28q-.32-.64-.51-1.09H215a8.31,8.31,0,0,1-.42,1.09q-.29.64-.61,1.28t-.58,1.18a2.18,2.18,0,0,0-.26.8c0,.3.11.47.32.51a2.72,2.72,0,0,0,.51.06v.77h-9.6v-.77a2,2,0,0,0,.77-.16.87.87,0,0,0,.51-.48q1.92-4.48,3.9-8.86t3.55-7.94l2.59-5.89a14.88,14.88,0,0,0,1-2.66c0-.38-.28-.6-.83-.64v-.77h13.38v.77q-.83.06-.83.64a9.83,9.83,0,0,0,.67,1.7q.67,1.5,1.76,3.78l2.4,5,2.62,5.5q1.31,2.75,2.46,5.22t1.86,4.13a.87.87,0,0,0,.51.48,2,2,0,0,0,.77.16v.77H230.85Zm-8.58-20.74L217,164.57h10.62Z"/><path class="cls-4" d="M258.76,173a.84.84,0,0,0,.51.9,4.8,4.8,0,0,0,1.28.26v.77H248.39v-.77a4.81,4.81,0,0,0,1.28-.26.84.84,0,0,0,.51-.9V148.63a.85.85,0,0,0-.51-.9,4.85,4.85,0,0,0-1.28-.26v-.77h12.16v.77a4.84,4.84,0,0,0-1.28.26.84.84,0,0,0-.51.9v8.06H272.9v-8.06a.85.85,0,0,0-.51-.9,4.87,4.87,0,0,0-1.28-.26v-.77h12.16v.77a4.85,4.85,0,0,0-1.28.26.84.84,0,0,0-.51.9V173a.84.84,0,0,0,.51.9,4.81,4.81,0,0,0,1.28.26v.77H271.11v-.77a4.83,4.83,0,0,0,1.28-.26.84.84,0,0,0,.51-.9v-9.73H258.76Z"/><path d="M105.28,30.47a1.32,1.32,0,0,0,.05-.22,2,2,0,0,0,0-.29q0-.27-.46-.54a5.41,5.41,0,0,0-1.22-.49,14.18,14.18,0,0,0-1.75-.37,13.51,13.51,0,0,0-2.07-.15,10.33,10.33,0,0,0-2.14.24,6.92,6.92,0,0,0-2.06.78,4.55,4.55,0,0,0-1.53,1.45,4.34,4.34,0,0,0,0,4.39,4.54,4.54,0,0,0,1.53,1.44,6.88,6.88,0,0,0,2.06.78,10.32,10.32,0,0,0,2.14.24,9.84,9.84,0,0,0,1.39-.15,16.44,16.44,0,0,0,1.9-.42,11.45,11.45,0,0,0,1.68-.61q.73-.34.73-.71a.49.49,0,0,0-.07-.27,2,2,0,0,1-.14-.24l.37-.24,3.5,5.34-.41.24a.38.38,0,0,0-.19-.22.73.73,0,0,0-.29-.05,3.34,3.34,0,0,0-1,.29,18.85,18.85,0,0,1-1.85.61,24.87,24.87,0,0,1-2.67.58,21,21,0,0,1-3.43.25,15.85,15.85,0,0,1-4-.53,10.94,10.94,0,0,1-3.6-1.67A8.92,8.92,0,0,1,89.2,37a7.88,7.88,0,0,1-1-4,7.88,7.88,0,0,1,1-4,8.92,8.92,0,0,1,2.58-2.86,11.76,11.76,0,0,1,3.6-1.72,14.55,14.55,0,0,1,4-.58,24.25,24.25,0,0,1,3.52.22,23.36,23.36,0,0,1,2.5.49q1,.27,1.53.46a2.78,2.78,0,0,0,.82.19.62.62,0,0,0,.51-.27l.37.1-3.06,5.61Z"/><path d="M119.83,27.44a3.11,3.11,0,0,0-.8.14.45.45,0,0,0-.29.48V41a.45.45,0,0,0,.29.48,3.09,3.09,0,0,0,.8.14V42H113.1v-.41a3.1,3.1,0,0,0,.8-.14.45.45,0,0,0,.29-.48V28.05a.45.45,0,0,0-.29-.48,3.12,3.12,0,0,0-.8-.14V27h6.73Z"/><path d="M138.7,27a.73.73,0,0,0,.41-.14q.2-.14.2-.61h.41v5h-.41q0-.48-.2-.61a.73.73,0,0,0-.41-.14h-4.86V41a.45.45,0,0,0,.25.48,2.09,2.09,0,0,0,.53.14V42H128.5v-.41a2.1,2.1,0,0,0,.53-.14.45.45,0,0,0,.25-.48V30.5h-4.86a.73.73,0,0,0-.41.14c-.14.09-.2.29-.2.61h-.41v-5h.41c0,.32.07.52.2.61a.73.73,0,0,0,.41.14Z"/><path d="M153.83,41q0,.37.24.48a1.85,1.85,0,0,0,.48.14V42h-6v-.41a1.87,1.87,0,0,0,.48-.14q.24-.1.24-.48V36.59l-6.49-8.81a.69.69,0,0,0-.46-.27,2.66,2.66,0,0,0-.53-.07V27h7.31v.41a2.89,2.89,0,0,0-.49.05.3.3,0,0,0-.29.32,1.5,1.5,0,0,0,.32.63l.8,1.1q.48.65,1.05,1.38t1.09,1.41a9.12,9.12,0,0,1,.61-1l1-1.43q.53-.75.93-1.36a2.22,2.22,0,0,0,.41-.78.3.3,0,0,0-.27-.32,2.49,2.49,0,0,0-.44-.05V27h6.73v.41a2.35,2.35,0,0,0-.48.07.68.68,0,0,0-.44.27l-5.81,8.67Z"/><path d="M191.2,30.47a1.32,1.32,0,0,0,.05-.22,2,2,0,0,0,0-.29q0-.27-.46-.54a5.41,5.41,0,0,0-1.22-.49,14.18,14.18,0,0,0-1.75-.37,13.51,13.51,0,0,0-2.07-.15,10.33,10.33,0,0,0-2.14.24,6.92,6.92,0,0,0-2.06.78A4.55,4.55,0,0,0,180,30.86a4.34,4.34,0,0,0,0,4.39,4.54,4.54,0,0,0,1.53,1.44,6.88,6.88,0,0,0,2.06.78,10.32,10.32,0,0,0,2.14.24,9.84,9.84,0,0,0,1.39-.15,16.44,16.44,0,0,0,1.9-.42,11.45,11.45,0,0,0,1.68-.61q.73-.34.73-.71a.49.49,0,0,0-.07-.27,2,2,0,0,1-.14-.24l.37-.24,3.5,5.34-.41.24a.38.38,0,0,0-.19-.22.73.73,0,0,0-.29-.05,3.34,3.34,0,0,0-1,.29,18.85,18.85,0,0,1-1.85.61,24.87,24.87,0,0,1-2.67.58,21,21,0,0,1-3.43.25,15.85,15.85,0,0,1-4-.53,10.94,10.94,0,0,1-3.6-1.67A8.92,8.92,0,0,1,175.12,37a7.88,7.88,0,0,1-1-4,7.88,7.88,0,0,1,1-4,8.92,8.92,0,0,1,2.58-2.86,11.76,11.76,0,0,1,3.6-1.72,14.55,14.55,0,0,1,4-.58,24.25,24.25,0,0,1,3.52.22,23.36,23.36,0,0,1,2.5.49q1,.27,1.53.46a2.78,2.78,0,0,0,.82.19.62.62,0,0,0,.51-.27l.37.1-3.06,5.61Z"/><path d="M207.08,26.83a12.16,12.16,0,0,1,3.21.44,9.15,9.15,0,0,1,2.92,1.38,7.25,7.25,0,0,1,2.13,2.4,7,7,0,0,1,.82,3.47,7,7,0,0,1-.82,3.48,7.12,7.12,0,0,1-2.12,2.36,8.81,8.81,0,0,1-2.92,1.33,12.85,12.85,0,0,1-6.43,0,8.79,8.79,0,0,1-2.92-1.33A7.11,7.11,0,0,1,198.81,38a7,7,0,0,1-.82-3.48,7,7,0,0,1,.82-3.47,7.24,7.24,0,0,1,2.13-2.4,9.13,9.13,0,0,1,2.92-1.38A12.15,12.15,0,0,1,207.08,26.83Zm0,3.6a5.54,5.54,0,0,0-1.8.29,4.75,4.75,0,0,0-1.5.82,3.67,3.67,0,0,0-1,1.28,4.26,4.26,0,0,0,0,3.41,3.67,3.67,0,0,0,1,1.28,4.75,4.75,0,0,0,1.5.82,5.8,5.8,0,0,0,3.62,0,4.81,4.81,0,0,0,1.48-.82,3.68,3.68,0,0,0,1-1.28,4.26,4.26,0,0,0,0-3.41,3.68,3.68,0,0,0-1-1.28,4.81,4.81,0,0,0-1.48-.82A5.5,5.5,0,0,0,207.08,30.43Z"/><path d="M220.85,28.05a.45.45,0,0,0-.29-.48,2.81,2.81,0,0,0-.7-.14V27H226v.41a1.51,1.51,0,0,0-.37.14c-.14.07-.2.23-.2.48v8.26a2,2,0,0,0,.94,1.85,5.7,5.7,0,0,0,4.93,0,2,2,0,0,0,.93-1.85V28.05c0-.25-.07-.41-.2-.48a1.51,1.51,0,0,0-.37-.14V27h6.12v.41a2.81,2.81,0,0,0-.7.14.45.45,0,0,0-.29.48v7.48a8,8,0,0,1-.41,2.57A5.29,5.29,0,0,1,235,40.21a6.09,6.09,0,0,1-2.45,1.39,14.69,14.69,0,0,1-7.55,0,6.09,6.09,0,0,1-2.45-1.39,5.28,5.28,0,0,1-1.33-2.11,8,8,0,0,1-.41-2.57Z"/><path d="M259.84,41a.45.45,0,0,0,.27.48,2.54,2.54,0,0,0,.68.14V42H254.5v-.41a3.35,3.35,0,0,0,.63-.07q.36-.07.36-.37T254.74,40q-.75-.83-1.92-2.06l-2.63-2.74Q248.72,33.7,247.3,32l-.07.07V41a.45.45,0,0,0,.25.48,2.23,2.23,0,0,0,.63.14V42H242.3v-.41a2.17,2.17,0,0,0,.6-.14.45.45,0,0,0,.25-.48V28.05a.45.45,0,0,0-.27-.48,2.49,2.49,0,0,0-.65-.14V27h8.09v.41a1.86,1.86,0,0,0-.48.14c-.16.07-.24.23-.24.48a3.77,3.77,0,0,0,.56.7q.56.63,1.45,1.58l2,2.11,2.18,2.31v-6.7a.45.45,0,0,0-.27-.48,2.57,2.57,0,0,0-.68-.14V27h6v.41a2.56,2.56,0,0,0-.68.14.45.45,0,0,0-.27.48Z"/><path d="M279.09,32.78l-.48-.24a2.26,2.26,0,0,1,.08-.27.88.88,0,0,0,.05-.31q0-.2-.42-.48a5,5,0,0,0-1.09-.49,13.15,13.15,0,0,0-1.5-.39,8.45,8.45,0,0,0-1.68-.17,8.19,8.19,0,0,0-1.94.24,5.86,5.86,0,0,0-1.77.73,4.28,4.28,0,0,0-1.29,1.26,3.62,3.62,0,0,0,0,3.7,4.2,4.2,0,0,0,1.29,1.28,5.86,5.86,0,0,0,1.77.73,8.21,8.21,0,0,0,1.94.24,7,7,0,0,0,1.92-.25,8.73,8.73,0,0,0,1.6-.61,5.06,5.06,0,0,0,1.09-.71c.26-.24.39-.41.39-.53v-.31a1,1,0,0,0,0-.31l.37-.24,3.23,4.64-.41.24q-.31-.37-.54-.37a2.67,2.67,0,0,0-.73.3q-.6.3-1.58.69a13.93,13.93,0,0,1-2.33.66,15.17,15.17,0,0,1-3,.27,17.76,17.76,0,0,1-3.65-.37,9.31,9.31,0,0,1-3.18-1.27A6.89,6.89,0,0,1,265,38.08a7,7,0,0,1-.85-3.57A6.93,6.93,0,0,1,265,31a7.05,7.05,0,0,1,2.24-2.38,9.91,9.91,0,0,1,3.18-1.34,15.73,15.73,0,0,1,3.65-.43,12.51,12.51,0,0,1,2.18.19q1.05.19,1.94.39t1.53.39a3.86,3.86,0,0,0,.92.19.5.5,0,0,0,.31-.1.88.88,0,0,0,.2-.2l.41.14Z"/><path d="M292.65,27.44a3.11,3.11,0,0,0-.8.14.45.45,0,0,0-.29.48V41a.45.45,0,0,0,.29.48,3.09,3.09,0,0,0,.8.14V42h-6.73v-.41a3.1,3.1,0,0,0,.8-.14A.45.45,0,0,0,287,41V28.05a.45.45,0,0,0-.29-.48,3.12,3.12,0,0,0-.8-.14V27h6.73Z"/><path d="M297.85,28.05a.45.45,0,0,0-.27-.48,2.5,2.5,0,0,0-.65-.14V27h6.36v.41a2.25,2.25,0,0,0-.63.14.45.45,0,0,0-.25.48V38.52h9.32a.68.68,0,0,0,.41-.15q.2-.15.2-.7h.41v5.07h-.41q0-.54-.2-.65a.91.91,0,0,0-.41-.1H296.94v-.41a2.48,2.48,0,0,0,.65-.14.45.45,0,0,0,.27-.48Z"/><polygon class="cls-5" points="88.08 150.58 91.96 158.45 100.64 159.71 94.36 165.83 95.84 174.48 88.08 170.39 80.31 174.48 81.79 165.83 75.51 159.71 84.19 158.45 88.08 150.58"/><polygon class="cls-5" points="314.07 150.58 317.96 158.45 326.64 159.71 320.36 165.83 321.84 174.48 314.07 170.39 306.31 174.48 307.79 165.83 301.51 159.71 310.19 158.45 314.07 150.58"/></g></g></svg>